<?xml version="1.0" standalone="no"?>
<!DOCTYPE svg PUBLIC "-//W3C//DTD SVG 20010904//EN"
 "http://www.w3.org/TR/2001/REC-SVG-20010904/DTD/svg10.dtd">
<svg version="1.0" xmlns="http://www.w3.org/2000/svg"
 width="1440.000000pt" height="408.000000pt" viewBox="0 0 1440.000000 408.000000"
 preserveAspectRatio="xMidYMid meet">
<metadata>
Created by potrace 1.14, written by Peter Selinger 2001-2017
</metadata>
<g transform="translate(0.000000,408.000000) scale(0.100000,-0.100000)"
fill="#000000" stroke="none">
<path d="M836 2839 c-195 -48 -338 -179 -382 -350 -22 -86 -16 -226 13 -291
29 -65 105 -142 177 -183 34 -19 130 -57 215 -85 232 -76 289 -115 298 -204 6
-55 -26 -103 -92 -136 -42 -21 -64 -25 -135 -25 -105 1 -173 26 -247 90 -28
25 -53 45 -55 45 -2 0 -57 -59 -122 -130 -136 -150 -134 -135 -18 -211 134
-88 284 -125 462 -116 181 10 305 57 410 154 105 97 144 204 138 377 -4 132
-22 179 -102 260 -63 65 -154 110 -325 161 -147 43 -209 72 -246 117 -24 28
-27 38 -23 85 5 63 24 87 93 119 97 46 254 26 334 -42 l38 -33 99 107 c54 59
107 117 118 130 l20 23 -29 24 c-52 44 -187 104 -267 120 -107 21 -273 18
-372 -6z"/>
<path d="M5104 2840 c-295 -67 -507 -268 -585 -555 -32 -114 -32 -354 -1 -468
67 -247 248 -442 482 -522 318 -108 640 -50 829 149 28 30 51 59 51 64 0 9
-252 199 -276 209 -7 2 -22 -9 -34 -26 -61 -82 -190 -136 -311 -129 -221 13
-390 199 -406 450 -14 218 84 407 256 491 63 30 72 32 181 32 132 0 186 -18
252 -82 25 -24 40 -33 50 -27 8 5 69 54 136 109 l122 99 -52 54 c-64 65 -201
136 -303 157 -98 20 -289 18 -391 -5z"/>
<path d="M11494 2840 c-295 -67 -507 -268 -585 -555 -32 -114 -32 -354 -1
-468 67 -247 248 -442 482 -522 318 -108 640 -50 829 149 28 30 51 59 51 64 0
9 -252 199 -276 209 -7 2 -22 -9 -34 -26 -61 -82 -190 -136 -311 -129 -221 13
-390 199 -406 450 -14 218 84 407 256 491 63 30 72 32 181 32 132 0 186 -18
252 -82 25 -24 40 -33 50 -27 8 5 69 54 136 109 l122 99 -52 54 c-64 65 -201
136 -303 157 -98 20 -289 18 -391 -5z"/>
<path d="M12984 2841 c-297 -70 -507 -269 -585 -556 -32 -114 -32 -354 -1
-468 67 -247 248 -442 482 -522 212 -72 448 -72 652 1 242 87 412 274 479 529
31 116 31 325 1 449 -35 140 -100 254 -202 357 -75 75 -100 93 -191 137 -147
71 -204 84 -394 88 -131 3 -175 0 -241 -15z m388 -325 c166 -59 273 -196 300
-384 53 -366 -238 -640 -591 -557 -213 51 -351 239 -351 481 0 221 124 403
318 465 87 28 238 25 324 -5z"/>
<path d="M1750 2050 l0 -770 175 0 175 0 0 300 0 300 169 0 c292 0 432 40 536
151 87 95 121 226 104 401 -19 197 -153 331 -374 373 -59 12 -160 15 -431 15
l-354 0 0 -770z m668 465 c29 -9 68 -30 87 -46 64 -56 70 -160 14 -224 -49
-56 -94 -68 -266 -73 l-153 -4 0 181 0 181 133 0 c91 0 150 -5 185 -15z"/>
<path d="M3466 2812 c-12 -19 -656 -1515 -656 -1523 0 -5 84 -9 188 -9 l187 0
64 165 65 165 295 -2 296 -3 65 -162 65 -163 193 0 c110 0 192 4 192 9 0 5
-147 346 -326 758 -179 411 -328 754 -331 761 -6 14 -288 18 -297 4z m314
-904 c0 -5 -81 -8 -179 -8 l-179 0 60 153 c33 83 73 188 90 232 l31 79 89
-224 c48 -124 88 -228 88 -232z"/>
<path d="M6070 2050 l0 -770 545 0 545 0 0 160 0 160 -375 0 -375 0 0 155 0
155 335 0 335 0 0 155 0 155 -332 2 -333 3 0 140 0 140 353 3 352 2 0 155 0
155 -525 0 -525 0 0 -770z"/>
<path d="M7280 2670 l0 -150 220 0 220 0 0 -620 0 -620 175 0 175 0 0 620 0
620 215 0 215 0 0 150 0 150 -610 0 -610 0 0 -150z"/>
<path d="M8670 2050 l0 -770 175 0 175 0 0 330 0 330 325 0 325 0 0 -330 0
-330 175 0 175 0 0 770 0 770 -175 0 -175 0 0 -285 0 -285 -325 0 -325 0 0
285 0 285 -175 0 -175 0 0 -770z"/>
<path d="M10405 1654 c-129 -67 -154 -238 -49 -336 87 -81 241 -60 305 40 24
39 29 56 29 112 0 85 -35 146 -102 179 -53 25 -139 28 -183 5z"/>
</g>
</svg>
